<svg width="28" height="27" viewBox="0 0 28 27" fill="none" xmlns="http://www.w3.org/2000/svg">
<path d="M27.1052 13.4521C27.1052 6.04221 21.134 0.0390625 13.7748 0.0390625C6.41053 0.0390625 0.444336 6.04221 0.444336 13.4521C0.444336 20.1451 5.31744 25.6948 11.6919 26.6999V17.3301H8.30678V13.4529H11.6919V10.4962C11.6919 7.13537 13.6789 5.27935 16.7249 5.27935C18.1838 5.27935 19.711 5.5409 19.711 5.5409V8.84134H18.0272C16.3742 8.84134 15.8576 9.87665 15.8576 10.9371V13.4521H19.5543L18.9603 17.3292H15.8576V26.6991C22.2271 25.6939 27.1052 20.1443 27.1052 13.4512V13.4521Z" fill="#193FF6"/>
</svg>
