<svg width="21" height="21" viewBox="0 0 21 21" fill="none" xmlns="http://www.w3.org/2000/svg">
<path d="M20.7331 10.7935C20.7352 10.7893 20.7352 10.7851 20.7373 10.7809C20.7709 10.6927 20.7919 10.5982 20.7919 10.4995C20.7919 10.4008 20.7709 10.3063 20.7373 10.2181C20.7352 10.2139 20.7352 10.2097 20.7331 10.2055C20.6932 10.111 20.6365 10.0249 20.5651 9.95349L16.9888 6.37719C16.6864 6.07479 16.1992 6.07479 15.8968 6.37719C15.5944 6.67959 15.5944 7.16679 15.8968 7.46919L18.1564 9.72879H7.67319C7.24689 9.72879 6.90039 10.0753 6.90039 10.4995C6.90039 10.9258 7.24479 11.2723 7.67319 11.2723H18.1585L15.8968 13.5298C15.5944 13.8322 15.5944 14.3194 15.8968 14.6218C16.048 14.773 16.2454 14.8486 16.4428 14.8486C16.6402 14.8486 16.8376 14.773 16.9888 14.6218L20.5651 11.0455C20.6365 10.9741 20.6932 10.888 20.7331 10.7935Z" fill="#D8D8D8"/>
<path d="M18.9912 15.3888C18.5649 15.3888 18.2184 15.7353 18.2184 16.1616V18.2196C18.2184 18.5031 17.9874 18.7341 17.7039 18.7341H2.26894C1.98544 18.7341 1.75444 18.5031 1.75444 18.2196V2.78456C1.75444 2.50106 1.98544 2.27006 2.26894 2.27006H17.7039C17.9874 2.27006 18.2184 2.50106 18.2184 2.78456V4.84256C18.2184 5.26886 18.5649 5.61536 18.9912 5.61536C19.4175 5.61536 19.764 5.26886 19.764 4.84256V2.78456C19.764 1.64846 18.8421 0.726562 17.706 0.726562H2.26894C1.13284 0.726562 0.210938 1.64846 0.210938 2.78456V18.2196C0.210938 19.3557 1.13284 20.2776 2.26894 20.2776H17.7039C18.84 20.2776 19.7619 19.3557 19.7619 18.2196V16.1616C19.7619 15.7332 19.4154 15.3888 18.9912 15.3888Z" fill="#D8D8D8"/>
</svg>
