<svg width="33" height="34" viewBox="0 0 33 34" fill="none" xmlns="http://www.w3.org/2000/svg">
<rect y="0.341797" width="32.7839" height="32.7839" rx="14" fill="#ECECEC"/>
<g clip-path="url(#clip0)">
<path d="M16.3906 11.0322C13.9836 11.0322 12.0254 12.9905 12.0254 15.3975C12.0254 16.1679 12.229 16.9254 12.6141 17.588C12.7038 17.7425 12.8042 17.893 12.9124 18.0354L16.201 22.4353H16.5803L19.8689 18.0355C19.9771 17.893 20.0774 17.7425 20.1672 17.588C20.5523 16.9254 20.7559 16.1679 20.7559 15.3975C20.7559 12.9905 18.7977 11.0322 16.3906 11.0322ZM16.3906 16.8451C15.5924 16.8451 14.943 16.1957 14.943 15.3975C14.943 14.5992 15.5924 13.9498 16.3906 13.9498C17.1889 13.9498 17.8383 14.5992 17.8383 15.3975C17.8383 16.1957 17.1889 16.8451 16.3906 16.8451Z" fill="#808080"/>
</g>
<defs>
<clipPath id="clip0">
<rect width="11.4031" height="11.4031" fill="white" transform="translate(10.6895 11.0322)"/>
</clipPath>
</defs>
</svg>
