<svg width="21" height="21" viewBox="0 0 21 21" fill="none" xmlns="http://www.w3.org/2000/svg">
<path d="M10.5009 0.209961C4.81834 0.209961 0.210938 4.81736 0.210938 10.5C0.210938 16.1826 4.81834 20.79 10.5009 20.79C16.1835 20.79 20.7909 16.1826 20.7909 10.5C20.7909 4.81736 16.1835 0.209961 10.5009 0.209961ZM10.5009 3.28646C12.3804 3.28646 13.905 4.81106 13.905 6.69056C13.905 8.57006 12.3804 10.0947 10.5009 10.0947C8.62144 10.0947 7.09894 8.57006 7.09894 6.69056C7.09894 4.81106 8.62144 3.28646 10.5009 3.28646ZM10.4988 18.0999C8.62354 18.0999 6.90574 17.4174 5.58064 16.2855C5.25724 16.0104 5.07244 15.6072 5.07244 15.183C5.07244 13.2762 6.61594 11.7516 8.52064 11.7516H12.4812C14.388 11.7516 15.9252 13.2762 15.9252 15.183C15.9252 15.6072 15.7404 16.0104 15.417 16.2855C14.0919 17.4153 12.3741 18.0999 10.4988 18.0999Z" fill="#D8D8D8"/>
</svg>
