<svg width="21" height="21" viewBox="0 0 21 21" fill="none" xmlns="http://www.w3.org/2000/svg">
<path d="M20.7909 12.5114C20.772 11.8331 20.3205 11.306 19.9719 10.9553C20.1042 10.6529 20.1651 10.0691 20.1525 9.61127C20.121 8.22527 19.071 7.27607 17.4834 7.27607C16.3431 7.27607 13.9449 7.29287 12.6198 7.30547C13.0104 5.72627 13.4304 2.77157 12.603 1.39817C12.1977 0.724072 11.3787 0.201172 10.6479 0.201172C9.36274 0.201172 9.29134 0.751372 8.94274 1.59137C6.91834 6.43817 3.91114 9.21437 1.74184 9.21437C1.52134 9.21437 1.31554 9.32987 1.19584 9.51887C1.15594 9.58187 0.210938 10.9721 0.210938 14.0213C0.210938 17.1146 1.53184 19.0466 1.58644 19.1138C1.70824 19.2629 1.89094 19.3364 2.08414 19.349C4.72594 19.5233 5.45044 19.7228 5.83264 20.0105C6.55504 20.5565 6.60124 20.8001 12.4371 20.8001C16.1562 20.8001 18.4704 20.1638 18.8148 18.5804C18.9009 18.1856 18.8694 17.6732 18.8316 17.4002C19.3083 17.0663 20.0727 16.4258 20.1126 15.4325C20.1294 15.0293 19.9614 14.6912 19.8774 14.435C20.2428 14.0528 20.814 13.3871 20.7909 12.5114Z" fill="#D8D8D8"/>
</svg>
