<svg width="21" height="21" viewBox="0 0 21 21" fill="none" xmlns="http://www.w3.org/2000/svg">
<path d="M4.45883 7.24099H7.16153C7.57733 7.24099 7.91333 6.94909 7.91333 6.58579V3.82219C7.91333 3.45889 7.57733 3.16699 7.16153 3.16699H4.45883C4.04303 3.16699 3.70703 3.45889 3.70703 3.82219V6.58789C3.70703 6.94909 4.04303 7.24099 4.45883 7.24099Z" fill="#D8D8D8"/>
<path d="M4.01855 10.1386H14.5501C14.8357 10.1386 15.0688 9.78792 15.0688 9.35112C15.0688 8.91432 14.8357 8.56152 14.5501 8.56152H4.01855C3.73085 8.56152 3.50195 8.91432 3.50195 9.35112C3.50195 9.78792 3.73295 10.1386 4.01855 10.1386Z" fill="#D8D8D8"/>
<path d="M4.02051 12.9091H14.552C14.8376 12.9091 15.0707 12.5584 15.0707 12.1216C15.0707 11.6848 14.8376 11.332 14.552 11.332H4.02051C3.73491 11.332 3.50391 11.6848 3.50391 12.1216C3.50391 12.5584 3.73491 12.9091 4.02051 12.9091Z" fill="#D8D8D8"/>
<path d="M20.107 16.6656L15.5647 13.524C15.2182 13.2846 14.9368 13.4316 14.9368 13.8537V15.3048C14.5399 15.5043 13.492 16.0419 12.9733 16.4241C11.9422 17.1822 9.81488 19.4334 9.81488 19.4334C9.52718 19.74 9.62168 19.8975 10.027 19.7841C10.027 19.7841 13.0657 18.942 14.2942 18.7068C14.6239 18.6438 14.7751 18.6732 14.7751 18.6732C14.8318 18.6837 14.8843 18.6732 14.9368 18.6711V20.3469C14.9368 20.7669 15.2203 20.916 15.5647 20.6766L20.107 17.535C20.4535 17.2977 20.4535 16.905 20.107 16.6656Z" fill="#D8D8D8"/>
<path d="M7.90496 19.278H4.59327H2.84187C2.32107 19.278 1.89477 18.8559 1.89477 18.3351V2.41916C1.89477 1.89836 2.32107 1.47206 2.84187 1.47206H10.2591H13.4826V4.86356C13.4826 5.53766 14.0328 6.08786 14.7069 6.08786H17.4936V11.7075C17.4936 12.0456 17.7687 12.3186 18.1047 12.3186H18.1404C18.4785 12.3186 18.7515 12.0435 18.7515 11.7075V5.81486C18.7515 5.63006 18.6633 5.46836 18.531 5.35496C18.4953 5.29826 18.4785 5.24576 18.4239 5.18906L14.3121 0.718161C14.2869 0.690861 14.2638 0.686661 14.2407 0.661461C14.1504 0.403161 13.89 0.209961 13.5708 0.209961H10.2591H2.84187C1.62597 0.209961 0.634766 1.19906 0.634766 2.41706V18.333C0.634766 19.5489 1.62387 20.538 2.84187 20.538H4.59327H7.90496C8.29557 20.538 8.61477 20.2545 8.61477 19.908C8.61477 19.5615 8.29767 19.278 7.90496 19.278Z" fill="#D8D8D8"/>
</svg>
