<svg width="256" height="256" viewBox="0 0 256 256" fill="none" xmlns="http://www.w3.org/2000/svg">
<g clip-path="url(#clip0)">
<path d="M247.782 140.979C252.321 140.979 256 137.277 256 132.71C256 128.143 252.321 124.441 247.782 124.441C243.244 124.441 239.564 128.143 239.564 132.71C239.564 137.277 243.244 140.979 247.782 140.979Z" fill="#90CAF9"/>
<path d="M170.932 35.3786C177.407 35.3786 182.657 30.0948 182.657 23.577C182.657 17.0591 177.407 11.7754 170.932 11.7754C164.456 11.7754 159.207 17.0591 159.207 23.577C159.207 30.0948 164.456 35.3786 170.932 35.3786Z" fill="#90CAF9"/>
<mask id="mask0" mask-type="alpha" maskUnits="userSpaceOnUse" x="0" y="3" width="225" height="227">
<path d="M112.384 229.965C174.452 229.965 224.768 179.362 224.768 116.941C224.768 54.5196 174.452 3.91699 112.384 3.91699C50.316 3.91699 0 54.5196 0 116.941C0 179.362 50.316 229.965 112.384 229.965Z" fill="url(#paint0_radial)"/>
</mask>
<g mask="url(#mask0)">
<path d="M203.554 51.7529H55.6081C53.472 51.7529 51.7539 53.67 51.7539 56.0216V159.287C51.7539 161.638 53.472 163.555 55.6081 163.555H203.554C205.69 163.555 207.408 161.638 207.408 159.287V56.0216C207.385 53.67 205.667 51.7529 203.554 51.7529Z" fill="#F05F3F"/>
<path d="M127.924 79.4373H102.887C100.071 79.4373 97.793 77.1589 97.793 74.3173C97.793 71.5013 100.071 69.1973 102.887 69.1973H127.924C130.74 69.1973 133.019 71.4757 133.019 74.3173C133.019 77.1333 130.74 79.4373 127.924 79.4373Z" fill="#EDEDEF"/>
<path d="M104.858 97.1267H75.9303C73.1143 97.1267 70.8359 94.8483 70.8359 92.0067C70.8359 89.1907 73.1143 86.8867 75.9303 86.8867H104.858C107.674 86.8867 109.953 89.1651 109.953 92.0067C109.927 94.8227 107.649 97.1267 104.858 97.1267Z" fill="white"/>
<path d="M183.067 114.022H75.9049C73.0889 114.022 70.8105 111.744 70.8105 108.902C70.8105 106.086 73.0889 103.782 75.9049 103.782H183.067C185.883 103.782 188.161 106.061 188.161 108.902C188.161 111.744 185.883 114.022 183.067 114.022Z" fill="#EEEEEE"/>
<path d="M126.362 132.122H97.4342C94.6182 132.122 92.3398 129.843 92.3398 127.002C92.3398 124.186 94.6182 121.882 97.4342 121.882H126.362C129.178 121.882 131.457 124.16 131.457 127.002C131.457 129.843 129.178 132.122 126.362 132.122Z" fill="#193FF6"/>
<path d="M195.585 132.122H147.098C144.282 132.122 142.004 129.843 142.004 127.002C142.004 124.186 144.282 121.882 147.098 121.882H195.585C198.401 121.882 200.679 124.16 200.679 127.002C200.653 129.843 198.401 132.122 195.585 132.122Z" fill="#EDEDEF"/>
<path d="M85.3001 79.4373H75.9049C73.0889 79.4373 70.8105 77.1589 70.8105 74.3173C70.8105 71.5013 73.0889 69.1973 75.9049 69.1973H85.3001C88.1161 69.1973 90.3945 71.4757 90.3945 74.3173C90.3945 77.1333 88.1161 79.4373 85.3001 79.4373Z" fill="#193FF6"/>
<g opacity="0.08">
<g opacity="0.08">
<g opacity="0.08">
<path opacity="0.08" d="M139.187 252.007L140.262 143.514L139.392 143.438L138.316 252.007H139.187Z" fill="#2B2F42"/>
</g>
<g opacity="0.08">
<path opacity="0.08" d="M146.561 229.376H76.903L76.8262 228.531H146.509L146.561 229.376Z" fill="#2B2F42"/>
</g>
<g opacity="0.08">
<path opacity="0.08" d="M146.74 211.943H77.0571L77.0059 211.072H146.689L146.74 211.943Z" fill="#2B2F42"/>
</g>
<g opacity="0.08">
<path opacity="0.08" d="M146.918 194.509H77.2348L77.1836 193.639H146.841L146.918 194.509Z" fill="#2B2F42"/>
</g>
<g opacity="0.08">
<path opacity="0.08" d="M147.098 177.05H77.4147L77.3379 176.18H147.021L147.098 177.05Z" fill="#2B2F42"/>
</g>
<g opacity="0.08">
<path opacity="0.08" d="M147.252 159.617H77.5944L77.5176 158.746H147.201L147.252 159.617Z" fill="#2B2F42"/>
</g>
</g>
<g opacity="0.08">
<path opacity="0.08" d="M83.3782 252.007L84.4534 143.514L83.583 143.438L82.5078 252.007H83.3782Z" fill="#2B2F42"/>
</g>
</g>
<path d="M137.959 137.199L128.342 251.944L129.209 252.017L138.826 137.271L137.959 137.199Z" fill="#0962E2"/>
<path d="M138.804 222.285H69.1211V223.156H138.804V222.285Z" fill="#0962E2"/>
<path d="M140.263 204.853H70.5801V205.723H140.263V204.853Z" fill="#0962E2"/>
<path d="M141.722 187.393H72.0391V188.263H141.722V187.393Z" fill="#0962E2"/>
<path d="M143.181 169.959H73.498V170.829H143.181V169.959Z" fill="#0962E2"/>
<path d="M144.615 152.5H74.9316V153.37H144.615V152.5Z" fill="#0962E2"/>
<path d="M82.1563 137.202L72.5391 251.948L73.4064 252.021L83.0237 137.275L82.1563 137.202Z" fill="#0962E2"/>
</g>
<path d="M193.639 176L165.838 182.17L161.818 163.789L189.62 157.619L193.639 176Z" fill="#C9CDD3"/>
<path d="M208.615 252.544L211.201 245.939C211.201 245.939 194.202 221.389 193.998 220.416C193.793 219.443 188.186 202.573 188.186 202.573C187.444 209.818 182.81 222.259 182.81 222.259C186.292 229.197 186.471 234.522 185.601 238.362C184.73 242.227 182.81 244.531 182.17 245.402C180.89 247.142 182.17 256 182.17 256H173.902L178.612 253.414C178.612 253.414 178.407 249.728 176.129 234.829C174.926 226.842 174.183 220.058 173.953 214.17V214.144C173.774 209.05 173.978 204.621 174.618 200.653C175.207 197.018 176.257 191.693 177.255 186.778C177.972 183.194 178.689 179.84 179.175 177.51C179.278 177.075 179.354 176.691 179.431 176.333C179.713 175.053 179.866 174.285 179.866 174.285C179.866 174.285 181.556 171.469 183.937 168.704C188.11 163.866 194.433 159.206 197.71 170.061C198.017 171.059 198.298 172.109 198.58 173.184C202.983 190.336 203.828 215.142 203.828 215.142C203.828 215.142 207.489 216.986 210.177 224.538C211.457 228.122 211.764 231.68 211.738 234.419C211.713 237.491 211.252 239.565 211.252 239.565L214.478 245.069L208.615 252.544Z" fill="#30303F"/>
<path d="M182.145 176.871L177.281 186.752C177.998 183.168 178.715 179.815 179.201 177.485C179.304 177.05 179.38 176.666 179.457 176.308L182.145 176.871Z" fill="#191923"/>
<path d="M172.52 126.08C172.52 126.08 172.878 132.198 175.745 133.939C178.612 135.68 179.611 135.168 179.611 135.168C179.611 135.168 180.404 139.494 180.609 139.494C180.814 139.494 182.401 137.83 182.836 137.472C183.272 137.113 182.273 129.766 182.273 129.766C182.273 129.766 184.5 129.971 184.424 126.95C184.347 123.929 181.556 127.462 181.556 127.462L179.969 126.72L172.52 126.08Z" fill="#DB7767"/>
<path d="M179.968 126.72C179.968 126.72 175.591 129.459 170.087 127.36C164.583 125.261 168.013 120.09 173.159 118.989C178.304 117.888 181.044 118.989 183.04 120.064C183.04 120.064 186.189 118.042 187.495 120.704C188.775 123.366 189.773 130.509 182.605 132.557L182.247 129.715C182.247 129.715 183.911 129.613 184.295 128.026C184.679 126.438 182.964 125.798 181.863 127.488C181.863 127.514 180.941 127.872 179.968 126.72Z" fill="#242477"/>
<path d="M152.679 155.444C152.679 155.444 149.172 154.727 147.687 152.653C146.202 150.605 151.476 151.732 152.679 153.242C153.857 154.778 152.679 155.444 152.679 155.444Z" fill="#DB7767"/>
<path d="M200.014 172.851C200.014 172.851 199.502 172.979 198.632 173.183C195.816 173.823 189.288 175.308 184.424 176.409C182.171 176.895 180.251 177.305 179.227 177.51C178.868 177.587 178.612 177.612 178.484 177.638C177.128 177.74 177.844 176.025 177.844 176.025L175.182 165.094L152.936 155.468V154.291L156.801 155.059C156.801 155.059 161.102 153.215 165.838 154.675C170.574 156.134 172.724 156.569 173.467 153.548C174.209 150.527 178.408 141.542 180.635 139.519C182.862 137.497 182.862 137.497 182.862 137.497C182.862 137.497 187.444 140.134 191.105 143.923C194.766 147.711 195.611 148.889 195.841 149.759C196.046 150.63 194.664 155.801 194.664 155.801C194.664 155.801 197.684 168.345 198.76 170.291C199.784 172.211 200.014 172.851 200.014 172.851Z" fill="white"/>
<path d="M153.294 154.189L142.67 149.735L147.099 139.06L157.723 143.514L153.294 154.189Z" fill="#C9CDD3"/>
<path d="M169.447 178.279C169.447 178.279 171.034 176.154 172.826 177.306C174.644 178.458 173.543 180.916 173.543 180.916C173.543 180.916 170.369 181.505 169.447 181.428C168.551 181.377 169.447 178.279 169.447 178.279Z" fill="#DB7767"/>
<path d="M182.145 176.871C179.892 177.357 180.225 177.28 179.201 177.485C178.843 177.562 178.587 177.587 178.459 177.613C177.102 177.715 177.819 176 177.819 176L175.156 165.069L178.919 166.247C178.919 166.247 182.683 155.213 182.887 154.035C183.015 153.319 183.553 161.869 183.937 168.679C184.167 172.365 182.094 176.026 182.145 176.871Z" fill="#EDEDEF"/>
<path d="M194.638 155.75L191.08 143.872C194.741 147.661 195.586 148.838 195.816 149.709C196.021 150.579 194.638 155.75 194.638 155.75Z" fill="#EDEDEF"/>
<path d="M182.81 222.259C186.292 229.197 186.471 234.521 185.601 238.361C186.497 230.809 180.327 221.286 181.198 219.878C182.068 218.47 185.498 195.251 185.498 195.251L188.186 202.573C187.418 209.843 182.81 222.259 182.81 222.259Z" fill="#191923"/>
<path d="M179.611 135.143L181.199 134.528L180.328 138.676L179.611 135.143Z" fill="#B75046"/>
<path d="M131.2 202.472C131.2 202.472 123.469 204.315 123.239 203.777C123.034 203.24 122.266 196.968 122.266 196.968C122.266 196.968 121.549 196.533 120.602 195.534C119.501 194.357 118.093 192.385 117.223 189.39C115.61 183.886 115.405 175.669 115.405 175.669C108.749 173.825 101.325 168.091 101.325 168.091C101.325 168.091 100.045 180.2 98.7395 184.91C98.4067 186.088 97.8435 188.238 97.1523 190.773C95.1299 198.273 92.1347 209.384 91.6483 210.689C91.0083 212.43 91.1107 217.166 91.1107 217.166L94.2339 218.907L87.7827 220.417C87.7827 220.417 88.1155 217.499 88.4227 214.683C88.7299 211.867 85.7347 207.003 85.2995 201.166C85.1971 199.809 85.3507 198.452 85.6323 197.147C86.5795 192.923 89.0627 189.493 89.0627 189.493C89.0627 189.493 85.0947 181.377 84.5571 172.725C84.0195 164.072 85.5299 151.63 85.5299 151.63L87.2451 149.352L105.242 148.507L107.828 148.379C107.828 148.379 116.429 160.437 121.165 167.579C122.931 170.216 124.16 172.187 124.212 172.597C124.416 174.107 124.416 193.691 124.416 194.869C124.416 196.046 125.696 200.936 125.696 200.936L131.2 202.472Z" fill="#30303F"/>
<path d="M108.288 152.091L96.998 149.479L105.6 146.638L108.288 152.091Z" fill="#191923"/>
<path d="M121.139 167.604L104.346 149.454L105.216 148.532L107.802 148.404C107.802 148.404 116.403 160.487 121.139 167.604Z" fill="#191923"/>
<path d="M133.76 78.5672C133.76 81.6904 131.174 101.07 130.636 102.35C130.38 102.964 126.233 107.162 121.728 111.847C121.702 111.873 121.676 111.898 121.651 111.924C121.625 111.95 121.625 111.95 121.625 111.975C116.48 117.326 110.899 123.29 110.208 125.185C108.928 128.743 109.67 148.865 109.67 148.865L104.345 149.479L85.478 151.681L86.758 144.001C86.758 144.001 82.8924 142.158 82.79 141.185C82.7388 140.801 83.0972 138.42 83.6348 135.45C84.4796 130.945 85.8364 125.057 87.1164 122.497C89.2668 118.247 97.2796 115.354 97.2796 115.354L98.5852 113.409L101.145 113.716L104.524 114.126C104.524 114.126 107.187 114.842 109.568 112.538C109.696 112.41 109.824 112.282 109.977 112.129C112.46 109.338 119.014 104.756 121.6 102.401C124.185 100.02 125.696 97.4344 126.233 91.5976C126.771 85.7608 130.867 83.1752 131.712 81.8696C132.582 80.5128 133.76 75.444 133.76 78.5672Z" fill="white"/>
<path d="M107.546 106.036C106.138 111.156 103.168 110.951 102.758 110.9H102.707C102.707 110.9 104.294 113.895 104.576 114.1C104.704 114.202 103.629 114.407 102.272 114.612C100.352 114.945 97.8687 115.278 97.3311 115.303L96.9215 110.337L95.0527 96.8456L103.91 96.3848C103.885 96.4104 109.03 100.506 107.546 106.036Z" fill="#DB7767"/>
<path d="M102.247 114.638C101.863 114.356 101.504 114.049 101.171 113.716C99.8659 112.411 99.0723 110.926 99.0723 110.926H102.682C102.682 110.926 104.269 113.921 104.551 114.126C104.679 114.203 103.603 114.407 102.247 114.638Z" fill="#B75046"/>
<path d="M100.914 101.275C100.914 101.275 106.572 98.177 105.138 94.3626C105.138 94.3626 106.853 92.7754 104.78 90.2666C102.706 87.7322 90.6484 94.4394 91.8004 98.561C91.8004 98.561 88.6516 100.481 90.162 105.908C91.6724 111.31 95.3332 112.359 98.0468 111.847C100.76 111.335 102.706 110.951 101.836 104.423C101.836 104.423 101.708 105.012 100.632 105.191C99.5572 105.371 98.0468 103.348 98.2516 101.838C98.482 100.276 100.018 99.6874 100.914 101.275Z" fill="#242477"/>
<path d="M110.233 125.159C108.953 128.717 109.696 148.839 109.696 148.839L104.371 149.453C104.115 145.383 103.347 131.38 104.448 127.437C105.728 122.804 118.835 114.842 121.676 111.949C116.48 117.325 110.899 123.264 110.233 125.159Z" fill="#EDEDEF"/>
<path d="M101.298 168.09C101.298 168.09 100.018 180.199 98.7127 184.909C98.3799 186.087 97.8167 188.237 97.1255 190.771C98.0983 183.373 94.0791 162.253 95.5895 163.661C97.0999 165.069 101.298 168.09 101.298 168.09Z" fill="#191923"/>
<path d="M120.601 195.534C119.5 194.356 118.092 192.385 117.222 189.39C115.609 183.886 115.404 175.668 115.404 175.668C115.404 175.668 118.016 176.641 118.835 176.641C119.628 176.641 118.553 182.324 119.219 188.161C119.628 192.154 120.601 194.484 120.601 195.534Z" fill="#191923"/>
<path d="M90.804 192.18C90.804 192.18 87.0664 194.791 85.6328 197.172C86.58 192.948 89.0632 189.518 89.0632 189.518L90.804 192.18Z" fill="#191923"/>
<path d="M89.0362 129.28L86.7834 143.975C86.7834 143.975 82.9178 142.132 82.8154 141.159C82.7642 140.775 83.1226 138.394 83.6602 135.424V135.399L89.0362 129.28Z" fill="#EDEDEF"/>
<path d="M109.568 112.538C109.209 112.922 105.907 116.301 103.475 115.328C103.04 115.149 102.63 114.919 102.246 114.637C103.603 114.407 104.678 114.202 104.55 114.125C104.55 114.1 107.212 114.816 109.568 112.538Z" fill="#EDEDEF"/>
<path d="M133.76 78.567C133.76 78.567 134.733 75.111 134.297 72.935C133.862 70.7846 132.787 75.3926 132.787 75.3926C132.787 75.3926 131.354 75.239 131.354 76.391C131.379 77.5686 133.76 78.567 133.76 78.567Z" fill="#DB7767"/>
<path d="M28.5956 137.241C31.6212 137.241 34.074 134.777 34.074 131.737C34.074 128.698 31.6212 126.233 28.5956 126.233C25.57 126.233 23.1172 128.698 23.1172 131.737C23.1172 134.777 25.57 137.241 28.5956 137.241Z" fill="#90CAF9"/>
</g>
<defs>
<radialGradient id="paint0_radial" cx="0" cy="0" r="1" gradientUnits="userSpaceOnUse" gradientTransform="translate(112.39 116.94) scale(85.0113 85.49)">
<stop stop-color="white"/>
<stop offset="1"/>
</radialGradient>
<clipPath id="clip0">
<rect width="256" height="256" fill="white"/>
</clipPath>
</defs>
</svg>
