<svg width="165" height="58" viewBox="0 0 165 58" fill="none" xmlns="http://www.w3.org/2000/svg">
<path fill-rule="evenodd" clip-rule="evenodd" d="M36.2041 17.4336C35.9072 17.1444 35.5008 16.9877 35.0812 17.0008C34.6616 17.0138 34.2663 17.1954 33.989 17.5025L30.7281 21.1137L26.951 17.4336C26.3576 16.8555 25.3956 16.8555 24.8023 17.4336L8.44502 33.3708C7.85166 33.9489 7.85166 34.8863 8.44502 35.4644L24.8023 51.4016C25.3956 51.9797 26.3576 51.9797 26.951 51.4016L30.5247 47.9197L34.0488 51.3952C34.3332 51.6756 34.7205 51.834 35.1251 51.8352C35.5296 51.8364 35.918 51.6803 36.2041 51.4016L52.5613 35.4644C53.1547 34.8863 53.1547 33.9489 52.5613 33.3708L36.2041 17.4336ZM40.0105 34.3449L29.4475 44.7782C29.428 44.7975 29.4091 44.8172 29.3909 44.8373L25.8766 48.2613L11.6681 34.4176L25.8766 20.5739L40.0105 34.3449ZM32.6734 45.8261L35.1362 48.2549L49.3382 34.4176L35.2006 20.643L33.5909 22.4255L44.0645 32.4436C44.3525 32.7191 44.5161 33.0949 44.5194 33.4881C44.5226 33.8814 44.3652 34.2597 44.0817 34.5396L43.6425 34.9735C43.5683 35.1521 43.4569 35.3195 43.3082 35.4644L32.6734 45.8261Z" fill="#F05F3F"/>
<path d="M35.0812 17.0008L35.0656 16.501L35.0812 17.0008ZM36.2041 17.4336L35.8551 17.7917L35.8551 17.7917L36.2041 17.4336ZM33.989 17.5025L33.6179 17.1674V17.1674L33.989 17.5025ZM30.7281 21.1137L30.3792 21.4718C30.4765 21.5667 30.6082 21.6178 30.7441 21.6134C30.8799 21.6091 31.0081 21.5497 31.0992 21.4488L30.7281 21.1137ZM26.951 17.4336L27.2999 17.0755V17.0755L26.951 17.4336ZM24.8023 17.4336L24.4533 17.0755V17.0755L24.8023 17.4336ZM8.44502 33.3708L8.79394 33.7289H8.79394L8.44502 33.3708ZM8.44502 35.4644L8.09609 35.8225H8.09609L8.44502 35.4644ZM24.8023 51.4016L24.4533 51.7597L24.8023 51.4016ZM26.951 51.4016L27.2999 51.7597L26.951 51.4016ZM30.5247 47.9197L30.8758 47.5637C30.6819 47.3725 30.3707 47.3716 30.1757 47.5616L30.5247 47.9197ZM34.0488 51.3952L33.6977 51.7512H33.6977L34.0488 51.3952ZM36.2041 51.4016L36.553 51.7597H36.553L36.2041 51.4016ZM52.5613 35.4644L52.9102 35.8225L52.5613 35.4644ZM52.5613 33.3708L52.9102 33.0127L52.5613 33.3708ZM29.4475 44.7782L29.7989 45.134L29.7989 45.1339L29.4475 44.7782ZM40.0105 34.3449L40.3619 34.7006C40.4574 34.6062 40.511 34.4774 40.5105 34.3432C40.51 34.2089 40.4556 34.0805 40.3594 33.9868L40.0105 34.3449ZM29.3909 44.8373L29.7398 45.1954C29.7471 45.1883 29.7541 45.181 29.7609 45.1736L29.3909 44.8373ZM25.8766 48.2613L25.5277 48.6194C25.7219 48.8086 26.0314 48.8086 26.2256 48.6194L25.8766 48.2613ZM11.6681 34.4176L11.3192 34.0595C11.2226 34.1536 11.1681 34.2827 11.1681 34.4176C11.1681 34.5525 11.2226 34.6816 11.3192 34.7757L11.6681 34.4176ZM25.8766 20.5739L26.2256 20.2158C26.0314 20.0266 25.7219 20.0266 25.5277 20.2158L25.8766 20.5739ZM32.6734 45.8261L32.3245 45.468C32.2283 45.5617 32.1738 45.6903 32.1734 45.8246C32.173 45.9589 32.2267 46.0878 32.3223 46.1821L32.6734 45.8261ZM35.1362 48.2549L34.7851 48.6109C34.979 48.8021 35.2901 48.803 35.4851 48.613L35.1362 48.2549ZM49.3382 34.4176L49.6871 34.7757C49.7837 34.6816 49.8382 34.5525 49.8382 34.4176C49.8382 34.2827 49.7837 34.1536 49.6871 34.0595L49.3382 34.4176ZM35.2006 20.643L35.5495 20.2849C35.4522 20.19 35.3204 20.1389 35.1846 20.1432C35.0488 20.1476 34.9206 20.207 34.8295 20.3079L35.2006 20.643ZM33.5909 22.4255L33.2199 22.0904C33.0385 22.2912 33.0498 22.5998 33.2453 22.7869L33.5909 22.4255ZM44.0645 32.4436L43.7188 32.805L43.7189 32.805L44.0645 32.4436ZM44.5194 33.4881L45.0194 33.484L44.5194 33.4881ZM44.0817 34.5396L44.4331 34.8954V34.8953L44.0817 34.5396ZM43.6425 34.9735L43.2911 34.6177C43.2438 34.6645 43.2062 34.7203 43.1807 34.7817L43.6425 34.9735ZM43.3082 35.4644L43.6572 35.8225L43.3082 35.4644ZM35.0967 17.5005C35.3826 17.4916 35.6569 17.5986 35.8551 17.7917L36.553 17.0755C36.1575 16.6901 35.6189 16.4838 35.0656 16.501L35.0967 17.5005ZM34.3601 17.8376C34.5447 17.6331 34.8109 17.5094 35.0967 17.5005L35.0656 16.501C34.5123 16.5182 33.9878 16.7577 33.6179 17.1674L34.3601 17.8376ZM31.0992 21.4488L34.3601 17.8376L33.6179 17.1674L30.357 20.7786L31.0992 21.4488ZM26.6021 17.7917L30.3792 21.4718L31.077 20.7556L27.2999 17.0755L26.6021 17.7917ZM25.1512 17.7917C25.5504 17.4028 26.2029 17.4028 26.6021 17.7917L27.2999 17.0755C26.5124 16.3082 25.2409 16.3082 24.4533 17.0755L25.1512 17.7917ZM8.79394 33.7289L25.1512 17.7917L24.4533 17.0755L8.09609 33.0127L8.79394 33.7289ZM8.79394 35.1063C8.40202 34.7244 8.40202 34.1108 8.79394 33.7289L8.09609 33.0127C7.3013 33.7871 7.3013 35.0481 8.09609 35.8225L8.79394 35.1063ZM25.1512 51.0435L8.79394 35.1063L8.09609 35.8225L24.4533 51.7597L25.1512 51.0435ZM26.6021 51.0435C26.2029 51.4324 25.5504 51.4324 25.1512 51.0435L24.4533 51.7597C25.2409 52.527 26.5124 52.527 27.2999 51.7597L26.6021 51.0435ZM30.1757 47.5616L26.6021 51.0435L27.2999 51.7597L30.8736 48.2778L30.1757 47.5616ZM34.3999 51.0392L30.8758 47.5637L30.1736 48.2757L33.6977 51.7512L34.3999 51.0392ZM35.1266 51.3352C34.851 51.3344 34.5897 51.2264 34.3999 51.0392L33.6977 51.7512C34.0766 52.1249 34.5901 52.3336 35.1236 52.3352L35.1266 51.3352ZM35.8551 51.0435C35.6641 51.2296 35.4021 51.336 35.1266 51.3352L35.1236 52.3352C35.6571 52.3368 36.1718 52.1311 36.553 51.7597L35.8551 51.0435ZM52.2124 35.1063L35.8551 51.0435L36.553 51.7597L52.9102 35.8225L52.2124 35.1063ZM52.2124 33.7289C52.6043 34.1108 52.6043 34.7244 52.2124 35.1063L52.9102 35.8225C53.705 35.0481 53.705 33.7871 52.9102 33.0127L52.2124 33.7289ZM35.8551 17.7917L52.2124 33.7289L52.9102 33.0127L36.553 17.0755L35.8551 17.7917ZM29.7989 45.1339L40.3619 34.7006L39.6591 33.9891L29.0962 44.4225L29.7989 45.1339ZM29.7609 45.1736C29.7731 45.1602 29.7857 45.1469 29.7989 45.134L29.0962 44.4225C29.0703 44.4481 29.0452 44.4743 29.0209 44.501L29.7609 45.1736ZM26.2256 48.6194L29.7398 45.1954L29.042 44.4791L25.5277 47.9032L26.2256 48.6194ZM11.3192 34.7757L25.5277 48.6194L26.2256 47.9032L12.017 34.0595L11.3192 34.7757ZM25.5277 20.2158L11.3192 34.0595L12.017 34.7757L26.2256 20.932L25.5277 20.2158ZM40.3594 33.9868L26.2256 20.2158L25.5277 20.932L39.6616 34.703L40.3594 33.9868ZM32.3223 46.1821L34.7851 48.6109L35.4873 47.8989L33.0245 45.4701L32.3223 46.1821ZM35.4851 48.613L49.6871 34.7757L48.9893 34.0595L34.7873 47.8968L35.4851 48.613ZM49.6871 34.0595L35.5495 20.2849L34.8517 21.0011L48.9893 34.7757L49.6871 34.0595ZM34.8295 20.3079L33.2199 22.0904L33.962 22.7606L35.5717 20.9781L34.8295 20.3079ZM33.2453 22.7869L43.7188 32.805L44.4101 32.0823L33.9366 22.0642L33.2453 22.7869ZM43.7189 32.805C43.9108 32.9885 44.0173 33.2361 44.0194 33.4923L45.0194 33.484C45.015 32.9537 44.7942 32.4497 44.4101 32.0823L43.7189 32.805ZM44.0194 33.4923C44.0215 33.7484 43.9191 33.9975 43.7304 34.1839L44.4331 34.8953C44.8112 34.5219 45.0237 34.0143 45.0194 33.484L44.0194 33.4923ZM43.7304 34.1839L43.2911 34.6177L43.9939 35.3292L44.4331 34.8954L43.7304 34.1839ZM43.1807 34.7817C43.1323 34.8984 43.0591 35.0091 42.9593 35.1063L43.6572 35.8225C43.8548 35.63 44.0044 35.4058 44.1043 35.1652L43.1807 34.7817ZM42.9593 35.1063L32.3245 45.468L33.0224 46.1842L43.6572 35.8225L42.9593 35.1063Z" fill="#F05F3F"/>
<path d="M77.376 49.504C75.336 49.504 73.356 49.252 71.436 48.748C69.516 48.244 67.956 47.572 66.756 46.732L69.096 41.476C70.224 42.22 71.532 42.82 73.02 43.276C74.508 43.732 75.972 43.96 77.412 43.96C80.148 43.96 81.516 43.276 81.516 41.908C81.516 41.188 81.12 40.66 80.328 40.324C79.56 39.964 78.312 39.592 76.584 39.208C74.688 38.8 73.104 38.368 71.832 37.912C70.56 37.432 69.468 36.676 68.556 35.644C67.644 34.612 67.188 33.22 67.188 31.468C67.188 29.932 67.608 28.552 68.448 27.328C69.288 26.08 70.536 25.096 72.192 24.376C73.872 23.656 75.924 23.296 78.348 23.296C80.004 23.296 81.636 23.488 83.244 23.872C84.852 24.232 86.268 24.772 87.492 25.492L85.296 30.784C82.896 29.488 80.568 28.84 78.312 28.84C76.896 28.84 75.864 29.056 75.216 29.488C74.568 29.896 74.244 30.436 74.244 31.108C74.244 31.78 74.628 32.284 75.396 32.62C76.164 32.956 77.4 33.304 79.104 33.664C81.024 34.072 82.608 34.516 83.856 34.996C85.128 35.452 86.22 36.196 87.132 37.228C88.068 38.236 88.536 39.616 88.536 41.368C88.536 42.88 88.116 44.248 87.276 45.472C86.436 46.696 85.176 47.68 83.496 48.424C81.816 49.144 79.776 49.504 77.376 49.504ZM91.8286 23.8H98.9566V49H91.8286V23.8ZM112.884 49.504C110.844 49.504 108.864 49.252 106.944 48.748C105.024 48.244 103.464 47.572 102.264 46.732L104.604 41.476C105.732 42.22 107.04 42.82 108.528 43.276C110.016 43.732 111.48 43.96 112.92 43.96C115.656 43.96 117.024 43.276 117.024 41.908C117.024 41.188 116.628 40.66 115.836 40.324C115.068 39.964 113.82 39.592 112.092 39.208C110.196 38.8 108.612 38.368 107.34 37.912C106.068 37.432 104.976 36.676 104.064 35.644C103.152 34.612 102.696 33.22 102.696 31.468C102.696 29.932 103.116 28.552 103.956 27.328C104.796 26.08 106.044 25.096 107.7 24.376C109.38 23.656 111.432 23.296 113.856 23.296C115.512 23.296 117.144 23.488 118.752 23.872C120.36 24.232 121.776 24.772 123 25.492L120.804 30.784C118.404 29.488 116.076 28.84 113.82 28.84C112.404 28.84 111.372 29.056 110.724 29.488C110.076 29.896 109.752 30.436 109.752 31.108C109.752 31.78 110.136 32.284 110.904 32.62C111.672 32.956 112.908 33.304 114.612 33.664C116.532 34.072 118.116 34.516 119.364 34.996C120.636 35.452 121.728 36.196 122.64 37.228C123.576 38.236 124.044 39.616 124.044 41.368C124.044 42.88 123.624 44.248 122.784 45.472C121.944 46.696 120.684 47.68 119.004 48.424C117.324 49.144 115.284 49.504 112.884 49.504ZM146.704 35.86C148.144 36.364 149.272 37.156 150.088 38.236C150.904 39.292 151.312 40.576 151.312 42.088C151.312 44.296 150.424 46 148.648 47.2C146.872 48.4 144.304 49 140.944 49H127.336V23.8H140.224C143.44 23.8 145.888 24.4 147.568 25.6C149.248 26.776 150.088 28.372 150.088 30.388C150.088 31.588 149.788 32.668 149.188 33.628C148.612 34.564 147.784 35.308 146.704 35.86ZM134.392 28.948V33.808H139.288C141.688 33.808 142.888 32.992 142.888 31.36C142.888 29.752 141.688 28.948 139.288 28.948H134.392ZM140.368 43.852C142.864 43.852 144.112 43 144.112 41.296C144.112 39.592 142.864 38.74 140.368 38.74H134.392V43.852H140.368ZM155.004 23.8H162.132V49H155.004V23.8Z" fill="white"/>
</svg>
