<svg width="207" height="207" viewBox="0 0 207 207" fill="none" xmlns="http://www.w3.org/2000/svg">
<path d="M103.5 0C81.171 0 63 18.891 63 42.1065V103.5C63 126.72 81.171 145.606 103.5 145.606C125.829 145.606 144 126.72 144 103.5V42.1065C144 18.891 125.829 0 103.5 0ZM103.5 136.607C87.588 136.607 74.4255 124.128 72.324 108H134.672C132.575 124.132 119.412 136.607 103.5 136.607ZM135 99H72V42.1065C72 23.85 86.13 9 103.5 9C120.87 9 135 23.85 135 42.1065V99Z" fill="#BCBDBF"/>
<path d="M166.5 81C164.016 81 162 83.016 162 85.5V103.5C162 135.756 135.756 162 103.5 162C71.244 162 45 135.756 45 103.5V85.5C45 83.016 42.984 81 40.5 81C38.016 81 36 83.016 36 85.5V103.5C36 139.199 63.8775 168.44 99 170.771V198H76.5C74.016 198 72 200.016 72 202.5C72 204.984 74.016 207 76.5 207H130.5C132.984 207 135 204.984 135 202.5C135 200.016 132.984 198 130.5 198H108V170.771C143.122 168.44 171 139.199 171 103.5V85.5C171 83.016 168.984 81 166.5 81Z" fill="#BCBDBF"/>
</svg>
