<svg width="25" height="17" viewBox="0 0 25 17" fill="none" xmlns="http://www.w3.org/2000/svg">
<path d="M0.806713 7.62946L4.99556 5.11001C5.9293 4.54584 7.45654 3.62697 8.39028 3.06509L12.7166 0.545643C13.6485 -0.0185232 14.5546 0.433938 14.5546 1.55181V5.6092L15.2428 5.11033C16.1747 4.54616 17.6349 3.62729 18.5667 3.06541L22.7201 0.54596C23.6538 -0.0182064 24.3828 0.434255 24.3828 1.55219V6.62392V10.6813V15.753C24.3828 16.8667 23.6182 17.3212 22.6864 16.7593L18.4976 14.2398C17.5638 13.6757 16.1744 12.7591 15.2425 12.1949L14.5543 11.696V15.7534C14.5543 16.8671 13.6482 17.3215 12.7164 16.7597L8.45675 14.2402C7.52301 13.676 5.9602 12.7595 5.02867 12.1953L0.824095 9.67584C-0.110998 9.11028 -0.126722 8.19134 0.806713 7.62946Z" fill="white"/>
</svg>
