<svg width="25" height="17" viewBox="0 0 25 17" fill="none" xmlns="http://www.w3.org/2000/svg">
<path d="M24.1894 7.62946L20.0005 5.11001C19.0668 4.54584 17.5396 3.62697 16.6058 3.06509L12.2795 0.545643C11.3476 -0.0185232 10.4415 0.433938 10.4415 1.55181V5.6092L9.75333 5.11033C8.82143 4.54616 7.36121 3.62729 6.42937 3.06541L2.27603 0.54596C1.34229 -0.0182064 0.613281 0.434255 0.613281 1.55219V6.62392V10.6813V15.753C0.613281 16.8667 1.37785 17.3212 2.30969 16.7593L6.49854 14.2398C7.43228 13.6757 8.82174 12.7591 9.75364 12.1949L10.4418 11.696V15.7534C10.4418 16.8671 11.3479 17.3215 12.2797 16.7597L16.5393 14.2402C17.4731 13.676 19.0359 12.7595 19.9674 12.1953L24.172 9.67584C25.1071 9.11028 25.1228 8.19134 24.1894 7.62946Z" fill="white"/>
</svg>
