<svg width="25" height="23" viewBox="0 0 25 23" fill="none" xmlns="http://www.w3.org/2000/svg">
<path d="M15.5833 0.554907L9.29748 5.15736C8.22231 5.94371 7.34402 6.42461 7.34402 6.22721C7.34402 6.03485 6.25216 5.87593 4.91716 5.87593H2.97568C1.64068 5.87593 0.548828 6.96044 0.548828 8.28044V13.568C0.548828 14.893 1.64068 15.9725 2.97568 15.9725H4.91716C6.25216 15.9725 7.34402 15.9171 7.34402 15.8452C7.34402 15.7732 8.22277 16.3622 9.29756 17.1459L15.5833 21.7457C16.6608 22.5298 17.5368 22.092 17.5368 20.7697V1.53362C17.5368 0.211363 16.6608 -0.228737 15.5833 0.554907Z" fill="white"/>
<path d="M23.0667 7.01904L21.2953 8.73338C21.9383 9.16619 22.3895 9.86139 22.3895 10.6858C22.3895 11.518 21.9383 12.2128 21.2949 12.6433L23.0663 14.3577C24.1318 13.4751 24.816 12.1671 24.816 10.6859C24.8164 9.20504 24.1318 7.90157 23.0667 7.01904Z" fill="white"/>
</svg>
